/* XPM */

/*
    ybattery version 0.1
    Copyright (C) 2009 poiut.web.fc2.com

    This program is free software; you can redistribute it and/or modify it under the terms of the GNU General Public License as published by the Free Software Foundation; either version 3 of the License, or (at your option) any later version.

    This program is distributed in the hope that it will be useful, but WITHOUT ANY WARRANTY; without even the implied warranty of MERCHANTABILITY or FITNESS FOR A PARTICULAR PURPOSE. See the GNU General Public License for more details.

    You should have received a copy of the GNU General Public License along with this program. If not, see <http://www.gnu.org/licenses/>.
*/
static char * ac_xpm[] = {
"24 24 3 1",
" 	c #FFFFFFFFFFFF",
".	c #999999999999",
"X	c #8B8B00000000",
"     ......     X    X  ",
"     ......     X    X  ",
"     ......     X    X  ",
" .............. X    X  ",
" .............. X    X  ",
" ..............XXXXXXXX ",
" ..............XXXXXXXX ",
" ..............XXXXXXXX ",
" ..............XXXXXXXX ",
" ..............XXXXXXXX ",
" ..............XXXXXXXX ",
" ..............XXXXXXXX ",
" ..............XXXXXXXX ",
" ..............XXXXXXXX ",
" .............. XXXXXX  ",
" ..............  XXXX   ",
" ..............   XX    ",
" ..............   XX    ",
" ..............   XX    ",
" ..............   XX    ",
" ..............   XX    ",
" ..............   XX    ",
" ..............   XX    ",
" ..............   XX    "};
